<svg id="remotronika_logo" xmlns="http://www.w3.org/2000/svg" viewBox="0 0 300.091 61">
  <defs>
    <style>
      .cls-1 {
        fill: #8c8c8c;
      }

      .cls-2 {
        fill: #8dc63f;
      }

      .cls-3 {
        fill: #92278f;
      }
    </style>
  </defs>
  <g id="Group_162" data-name="Group 162" transform="translate(59.636 44.636)">
    <path id="Path_413" data-name="Path 413" class="cls-1" d="M65.6,50h3.091a5.752,5.752,0,0,1,3.182.636,2.354,2.354,0,0,1,1,2.091,2.538,2.538,0,0,1-.545,1.636,2.352,2.352,0,0,1-1.545.818v.091a2.461,2.461,0,0,1,2.455,2.545,2.822,2.822,0,0,1-1,2.273,4.172,4.172,0,0,1-2.818.818H65.6V50Zm1.273,4.636h2.091a3.251,3.251,0,0,0,1.909-.455,1.7,1.7,0,0,0,.636-1.455,1.435,1.435,0,0,0-.636-1.364A4.313,4.313,0,0,0,68.782,51H66.873Zm0,1.091v4.091h2.273a3.089,3.089,0,0,0,2-.545,1.945,1.945,0,0,0,.636-1.636,1.651,1.651,0,0,0-.727-1.455,3.409,3.409,0,0,0-2.091-.455H66.873Z" transform="translate(-65.6 -49.182)"/>
    <path id="Path_414" data-name="Path 414" class="cls-1" d="M80.327,61.355A3.43,3.43,0,0,1,77.6,60.264a4.5,4.5,0,0,1-1-3.091,4.759,4.759,0,0,1,1-3.182A3.631,3.631,0,0,1,80.418,52.9a5.184,5.184,0,0,1,1.182.091,5.649,5.649,0,0,1,.909.273l-.364,1.091c-.273-.091-.545-.182-.909-.273a3.374,3.374,0,0,0-.818-.182c-1.636,0-2.545,1.091-2.545,3.182a3.657,3.657,0,0,0,.636,2.364,2.167,2.167,0,0,0,1.818.818,5.774,5.774,0,0,0,2.091-.455V60.9A4.74,4.74,0,0,1,80.327,61.355Z" transform="translate(-66.6 -49.445)"/>
    <path id="Path_415" data-name="Path 415" class="cls-1" d="M89.3,61.073a3.98,3.98,0,0,1-2.909-1.091A4.133,4.133,0,0,1,85.3,56.891a4.931,4.931,0,0,1,1-3.182,3.157,3.157,0,0,1,2.636-1.182,3.357,3.357,0,0,1,2.455,1,3.587,3.587,0,0,1,.909,2.636v.818H86.664a2.994,2.994,0,0,0,.727,2.182,2.6,2.6,0,0,0,1.909.727,6.849,6.849,0,0,0,2.636-.545v1.091a3.371,3.371,0,0,1-1.273.364A3.036,3.036,0,0,1,89.3,61.073Zm-.364-7.455a1.873,1.873,0,0,0-1.545.636,3.339,3.339,0,0,0-.727,1.818h4.273a2.714,2.714,0,0,0-.545-1.818A1.593,1.593,0,0,0,88.936,53.618Zm-2.091-3.091a.768.768,0,0,1,.182-.545.659.659,0,0,1,.909,0c.182.091.182.273.182.545a.768.768,0,0,1-.182.545c-.182.091-.273.182-.455.182a.694.694,0,0,1-.455-.182A.975.975,0,0,1,86.845,50.527Zm2.909,0a.768.768,0,0,1,.182-.545.659.659,0,0,1,.909,0c.182.091.182.273.182.545a.768.768,0,0,1-.182.545c-.182.091-.273.182-.455.182a.694.694,0,0,1-.455-.182A1.292,1.292,0,0,1,89.755,50.527Z" transform="translate(-67.391 -49.164)"/>
    <path id="Path_416" data-name="Path 416" class="cls-1" d="M108.291,64.091h-1.182V61.182h-5.727V64H100.2V60.091h.636a11.5,11.5,0,0,0,1.545-3.182A17.566,17.566,0,0,0,103.018,53H107.2v7.182h1.182v3.909Zm-2.364-3.909V54h-1.818a14.626,14.626,0,0,1-.636,3.364,10.17,10.17,0,0,1-1.364,2.818Z" transform="translate(-68.745 -49.455)"/>
    <path id="Path_417" data-name="Path 417" class="cls-1" d="M117.673,61.173H116.4V53.991h-2.455a33.447,33.447,0,0,1-.545,4.273,4.883,4.883,0,0,1-.909,2.273,1.9,1.9,0,0,1-1.455.727,1.348,1.348,0,0,1-.636-.091v-.909h.364c.545,0,1-.636,1.364-1.818a23.36,23.36,0,0,0,.727-5.545h4.818v8.273Z" transform="translate(-69.673 -49.445)"/>
    <path id="Path_418" data-name="Path 418" class="cls-1" d="M122.355,61.182H120.9l2.364-3.455a3.219,3.219,0,0,1-1.455-.818,2.138,2.138,0,0,1-.545-1.545,2.188,2.188,0,0,1,.727-1.727A3.031,3.031,0,0,1,124.082,53h3.636v8.182h-1.273V57.909h-2.091Zm.182-5.727c0,.909.727,1.455,2.091,1.455h2V54.182h-2.273C123.082,54.091,122.536,54.545,122.536,55.455Z" transform="translate(-70.627 -49.455)"/>
    <path id="Path_419" data-name="Path 419" class="cls-1" d="M141.582,59.991l.273-.727.364-.909L144.4,52.9h1.545v8.182h-1.091V54.264l-.182.455-.455,1.182-2.091,5.182h-1L139.036,55.9a10.877,10.877,0,0,1-.545-1.545v6.818H137.4V52.991h1.545l2.182,5.182A17.69,17.69,0,0,0,141.582,59.991Z" transform="translate(-72.127 -49.445)"/>
    <path id="Path_420" data-name="Path 420" class="cls-1" d="M157.536,57.073a4.5,4.5,0,0,1-1,3.091,3.631,3.631,0,0,1-2.818,1.091,3.893,3.893,0,0,1-2-.545,4.208,4.208,0,0,1-1.364-1.455,5.614,5.614,0,0,1-.455-2.273,4.5,4.5,0,0,1,1-3.091,3.631,3.631,0,0,1,2.818-1.091,3.22,3.22,0,0,1,2.727,1.182A4.277,4.277,0,0,1,157.536,57.073Zm-6.273,0a3.5,3.5,0,0,0,.636,2.364,2.167,2.167,0,0,0,1.818.818,2.057,2.057,0,0,0,1.818-.818,3.657,3.657,0,0,0,.636-2.364,3.657,3.657,0,0,0-.636-2.364,2.231,2.231,0,0,0-1.909-.818,2.057,2.057,0,0,0-1.818.818A4.126,4.126,0,0,0,151.264,57.073Z" transform="translate(-73.264 -49.436)"/>
    <path id="Path_421" data-name="Path 421" class="cls-1" d="M161,55.918a8.743,8.743,0,0,1,.818-4.182,3.682,3.682,0,0,1,2.545-1.909c1.455-.273,2.727-.545,3.818-.727l.273,1.091c-1.727.273-3,.545-3.727.727a2.445,2.445,0,0,0-1.636,1.182,6.124,6.124,0,0,0-.636,2.545h.091a3.166,3.166,0,0,1,1.182-1,3.355,3.355,0,0,1,3.909.636,4.072,4.072,0,0,1,.818,2.727,4.417,4.417,0,0,1-1,3,3.43,3.43,0,0,1-2.727,1.091A3.129,3.129,0,0,1,162,59.736,5.962,5.962,0,0,1,161,55.918Zm3.818,4c1.545,0,2.273-1,2.273-2.909,0-1.818-.727-2.818-2.091-2.818a2.421,2.421,0,0,0-1.091.273,6.116,6.116,0,0,0-1,.636,1.68,1.68,0,0,0-.636.818,5.662,5.662,0,0,0,.636,3A1.97,1.97,0,0,0,164.818,59.918Z" transform="translate(-74.273 -49.1)"/>
    <path id="Path_422" data-name="Path 422" class="cls-1" d="M173.391,53v5.182l-.091,1.364V60l4.455-7H179.3v8.182h-1.182v-7l-4.273,7H172.3V53Z" transform="translate(-75.3 -49.455)"/>
    <path id="Path_423" data-name="Path 423" class="cls-1" d="M189.673,61.173H188.4V53.991h-2.455a33.447,33.447,0,0,1-.545,4.273,4.883,4.883,0,0,1-.909,2.273,1.9,1.9,0,0,1-1.455.727,1.348,1.348,0,0,1-.636-.091v-.909h.364c.545,0,1-.636,1.364-1.818a23.361,23.361,0,0,0,.727-5.545h4.818Z" transform="translate(-76.218 -49.445)"/>
    <path id="Path_424" data-name="Path 424" class="cls-1" d="M195.382,56.355h2.545c2.091,0,3.182.727,3.182,2.273a2.057,2.057,0,0,1-.818,1.818,3.657,3.657,0,0,1-2.364.636H194.2V52.9h1.273v3.455Zm0,1.091v2.727h2.364a2.6,2.6,0,0,0,1.545-.364,1.141,1.141,0,0,0,.545-1,1.173,1.173,0,0,0-.455-1,3.337,3.337,0,0,0-1.636-.364Z" transform="translate(-77.291 -49.445)"/>
    <path id="Path_425" data-name="Path 425" class="cls-1" d="M206.073,53v3.455h4.636V53h1.273v8.182h-1.273V57.545h-4.636v3.636H204.8V53Z" transform="translate(-78.255 -49.455)"/>
    <path id="Path_426" data-name="Path 426" class="cls-1" d="M217.573,56.364h2.273a3.8,3.8,0,0,1,2.273.545,1.935,1.935,0,0,1,.727,1.727,2.348,2.348,0,0,1-.818,1.909,3.5,3.5,0,0,1-2.364.636H216.3V53h1.273Zm0,1.091v2.727h2.091c1.364,0,2-.455,2-1.364a1.173,1.173,0,0,0-.455-1,3.108,3.108,0,0,0-1.545-.273h-2.091Zm7.909,3.727h-1.273V53h1.273Z" transform="translate(-79.3 -49.455)"/>
    <path id="Path_427" data-name="Path 427" class="cls-1" d="M231.918,57,229.1,53h1.455l2.182,3.182L234.918,53h1.364l-2.818,4,3,4.182H235.1l-2.273-3.364-2.364,3.364H229.1Z" transform="translate(-80.464 -49.455)"/>
    <path id="Path_428" data-name="Path 428" class="cls-1" d="M243.4,52.991h1.364l1.818,4.636c.364,1.091.636,1.818.727,2.273h.091c.091-.273.182-.727.364-1.273.182-.636.909-2.545,2-5.727h1.364l-3.545,9.455a5.8,5.8,0,0,1-1.182,2,2.621,2.621,0,0,1-1.727.545,4.426,4.426,0,0,1-1.091-.091v-1a2.8,2.8,0,0,0,.909.091,1.887,1.887,0,0,0,1.818-1.455l.455-1.182Z" transform="translate(-81.764 -49.445)"/>
    <path id="Path_429" data-name="Path 429" class="cls-1" d="M257.327,61.355a3.43,3.43,0,0,1-2.727-1.091,4.5,4.5,0,0,1-1-3.091,4.759,4.759,0,0,1,1-3.182,3.631,3.631,0,0,1,2.818-1.091,5.183,5.183,0,0,1,1.182.091,5.649,5.649,0,0,1,.909.273l-.364,1.091c-.273-.091-.545-.182-.909-.273a3.132,3.132,0,0,0-.818-.091c-1.636,0-2.545,1.091-2.545,3.182a3.657,3.657,0,0,0,.636,2.364,2.057,2.057,0,0,0,1.818.818,5.774,5.774,0,0,0,2.091-.455v1.091A7.16,7.16,0,0,1,257.327,61.355Z" transform="translate(-82.691 -49.445)"/>
    <path id="Path_430" data-name="Path 430" class="cls-1" d="M268.245,54.091h-2.636v7.091h-1.273V54H261.7V53h6.545v1.091Z" transform="translate(-83.427 -49.455)"/>
    <path id="Path_431" data-name="Path 431" class="cls-1" d="M275.318,61.345a3.769,3.769,0,0,1-1.455-.273,2.673,2.673,0,0,1-1.091-.909h-.091a6.88,6.88,0,0,1,.091,1.364v3.364H271.5V52.982h1l.182,1.091h.091a3.638,3.638,0,0,1,1.091-1,3.462,3.462,0,0,1,1.455-.273,3.172,3.172,0,0,1,2.545,1.091,4.643,4.643,0,0,1,.909,3.091,4.906,4.906,0,0,1-.909,3.182A2.987,2.987,0,0,1,275.318,61.345Zm-.182-7.455a2.256,2.256,0,0,0-1.818.727,3.5,3.5,0,0,0-.545,2.182v.273a4.068,4.068,0,0,0,.545,2.455,2.256,2.256,0,0,0,1.818.727,1.836,1.836,0,0,0,1.636-.818,4.3,4.3,0,0,0,.636-2.364,3.657,3.657,0,0,0-.636-2.364A1.836,1.836,0,0,0,275.136,53.891Z" transform="translate(-84.318 -49.436)"/>
    <path id="Path_432" data-name="Path 432" class="cls-1" d="M289.636,57.073a4.5,4.5,0,0,1-1,3.091,3.631,3.631,0,0,1-2.818,1.091,3.893,3.893,0,0,1-2-.545,4.208,4.208,0,0,1-1.364-1.455A5.614,5.614,0,0,1,282,56.982a4.5,4.5,0,0,1,1-3.091,3.631,3.631,0,0,1,2.818-1.091,3.22,3.22,0,0,1,2.727,1.182A4.277,4.277,0,0,1,289.636,57.073Zm-6.273,0A3.5,3.5,0,0,0,284,59.436a2.167,2.167,0,0,0,1.818.818,2.057,2.057,0,0,0,1.818-.818,3.657,3.657,0,0,0,.636-2.364,3.657,3.657,0,0,0-.636-2.364,2.231,2.231,0,0,0-1.909-.818,2.057,2.057,0,0,0-1.818.818A4.126,4.126,0,0,0,283.364,57.073Z" transform="translate(-85.273 -49.436)"/>
    <path id="Path_433" data-name="Path 433" class="cls-1" d="M294.673,52.655v5.182l-.091,1.364v.455l4.455-7h1.545v8.182H299.4v-7l-4.455,7H293.4V52.655h1.273Zm2.364-1.091a2.925,2.925,0,0,1-2-.545,2.359,2.359,0,0,1-.727-1.727h1.182a1.537,1.537,0,0,0,.364,1.091,1.875,1.875,0,0,0,1.182.273,1.543,1.543,0,0,0,1.182-.364c.273-.182.364-.545.455-1.091h1.182a2.359,2.359,0,0,1-.727,1.727A2.885,2.885,0,0,1,297.036,51.564Z" transform="translate(-86.309 -49.109)"/>
    <path id="Path_434" data-name="Path 434" class="cls-1" d="M308.227,61.355a3.43,3.43,0,0,1-2.727-1.091,4.5,4.5,0,0,1-1-3.091,4.759,4.759,0,0,1,1-3.182,3.631,3.631,0,0,1,2.818-1.091,5.183,5.183,0,0,1,1.182.091,5.65,5.65,0,0,1,.909.273l-.364,1.091c-.273-.091-.545-.182-.909-.273a3.132,3.132,0,0,0-.818-.091c-1.636,0-2.545,1.091-2.545,3.182a3.657,3.657,0,0,0,.636,2.364,2.167,2.167,0,0,0,1.818.818,5.774,5.774,0,0,0,2.091-.455v1.091A6.644,6.644,0,0,1,308.227,61.355Z" transform="translate(-87.318 -49.445)"/>
    <path id="Path_435" data-name="Path 435" class="cls-1" d="M319.245,54.091h-2.636v7.091h-1.273V54H312.7V53h6.545v1.091Z" transform="translate(-88.064 -49.455)"/>
    <path id="Path_436" data-name="Path 436" class="cls-1" d="M329.136,55.091a1.571,1.571,0,0,1-.455,1.182,2.358,2.358,0,0,1-1.273.545v.091a2.433,2.433,0,0,1,1.545.636,1.477,1.477,0,0,1,.455,1.273,2,2,0,0,1-.818,1.727,3.771,3.771,0,0,1-2.455.636H322.5V53h3.636C328.045,53,329.136,53.727,329.136,55.091Zm-1.273.091a.852.852,0,0,0-.455-.818,4.465,4.465,0,0,0-1.364-.273h-2.364v2.273h2.091a3.8,3.8,0,0,0,1.636-.273A1,1,0,0,0,327.864,55.182Zm.273,3.545a1.141,1.141,0,0,0-.545-1,3.8,3.8,0,0,0-1.636-.273h-2.273v2.727h2.273C327.409,60.182,328.136,59.727,328.136,58.727Z" transform="translate(-88.955 -49.455)"/>
  </g>
  <g id="Group_165" data-name="Group 165">
    <g id="Group_164" data-name="Group 164">
      <g id="Group_163" data-name="Group 163" transform="translate(59.636 18.727)">
        <path id="Path_437" data-name="Path 437" class="cls-3" d="M65.6,38.782V20.6H78.691a4.072,4.072,0,0,1,2.727.818,3.763,3.763,0,0,1,.818,2.727v4.091a3.664,3.664,0,0,1-.818,2.636,3.763,3.763,0,0,1-2.727.818H69.145v7.091Zm11.545-15H69.055V28.6h8.091c.636,0,1.091-.091,1.273-.364a1.537,1.537,0,0,0,.364-1.091V25.236c0-.545-.091-.909-.364-1.091C78.236,23.873,77.782,23.782,77.145,23.782Z" transform="translate(-65.6 -20.6)"/>
        <path id="Path_438" data-name="Path 438" class="cls-3" d="M87.8,38.782V20.6h15.727v3.091H91.436v4.091h7.091v3.091H91.436v4.545h12.273v3.455H87.8Z" transform="translate(-67.618 -20.6)"/>
        <path id="Path_439" data-name="Path 439" class="cls-3" d="M109.5,38.782V20.6h2.909l7.273,11,7.091-11h2.909V38.782h-3.273V26.691c0-.273.091-.636.091-1.091-.091.182-.182.455-.273.636l-.273.545a5.056,5.056,0,0,1-.364.727L119.773,36.6h-.727l-5.818-9.091a9.916,9.916,0,0,1-.545-1,6.268,6.268,0,0,1-.364-.909c0,.364.091.727.091,1.091V38.873H109.5Z" transform="translate(-69.591 -20.6)"/>
        <path id="Path_440" data-name="Path 440" class="cls-3" d="M136.8,24.873a5.726,5.726,0,0,1,.727-3.364c.545-.636,1.545-.909,3-.909h11.364c1.455,0,2.455.273,3,.909a5.192,5.192,0,0,1,.818,3.364v9.545c0,1.636-.273,2.818-.818,3.364-.545.636-1.545.909-3,.909H140.618c-1.455,0-2.455-.273-3-.909s-.727-1.727-.727-3.364V24.873Zm3.636,10.545h11.818V23.873H140.436Z" transform="translate(-72.073 -20.6)"/>
        <path id="Path_441" data-name="Path 441" class="cls-3" d="M172.436,23.873V38.782h-3.545V23.873H161.8V20.6h17.727v3.273Z" transform="translate(-74.345 -20.6)"/>
        <path id="Path_442" data-name="Path 442" class="cls-3" d="M184.3,38.782V20.6h13.182a4.072,4.072,0,0,1,2.727.818,3.763,3.763,0,0,1,.818,2.727v4.091a3.664,3.664,0,0,1-.818,2.636,3.763,3.763,0,0,1-2.727.818h-9.636v7.091Zm11.545-15h-8.091V28.6h8.091c.636,0,1.091-.091,1.273-.364a1.537,1.537,0,0,0,.364-1.091V25.236c0-.545-.091-.909-.364-1.091A1.645,1.645,0,0,0,195.845,23.782Z" transform="translate(-76.391 -20.6)"/>
        <path id="Path_443" data-name="Path 443" class="cls-3" d="M206.9,24.873a5.726,5.726,0,0,1,.727-3.364c.545-.636,1.545-.909,3-.909h11.364c1.455,0,2.455.273,3,.909a5.192,5.192,0,0,1,.818,3.364v9.545c0,1.636-.273,2.818-.818,3.364-.545.636-1.545.909-3,.909H210.627c-1.455,0-2.455-.273-3-.909s-.727-1.727-.727-3.364Zm3.636,10.545h11.818V23.873H210.536Z" transform="translate(-78.445 -20.6)"/>
        <path id="Path_444" data-name="Path 444" class="cls-3" d="M233.2,38.782V20.6h3.545v7.091h11.182V20.6h3.636V38.782h-3.636V30.964H236.745v7.818Z" transform="translate(-80.836 -20.6)"/>
        <path id="Path_445" data-name="Path 445" class="cls-3" d="M273.518,38.8V27.709a2.259,2.259,0,0,1,.091-.727c0-.364.091-.636.091-.818-.182.273-.364.455-.545.727a7.426,7.426,0,0,0-.727.818L261.155,38.982H258.7V20.8h3.182V31.345a4.077,4.077,0,0,1-.091,1,5.592,5.592,0,0,1-.091,1.182,12.266,12.266,0,0,1,.818-1,10.081,10.081,0,0,1,1-1L274.336,20.8h2.455V38.982h-3.273Z" transform="translate(-83.155 -20.618)"/>
        <path id="Path_446" data-name="Path 446" class="cls-3" d="M283.7,38.782V20.6h3.636v7.545l8.545-7.545h5.182l-10.273,8.545,11.455,9.636h-5.727l-9.182-8v8Z" transform="translate(-85.427 -20.6)"/>
        <path id="Path_447" data-name="Path 447" class="cls-3" d="M307.1,38.782,315.736,20.6h3.455l8.818,18.182h-4l-1.818-4h-9.727l-1.818,4Zm6.909-7.273h6.727l-3.364-7.364Z" transform="translate(-87.555 -20.6)"/>
      </g>
      <circle id="Ellipse_11" data-name="Ellipse 11" class="cls-3" cx="2.909" cy="2.909" r="2.909" transform="translate(19 38.364)"/>
      <path id="Path_448" data-name="Path 448" class="cls-3" d="M32.364,0H11.455A6.17,6.17,0,0,0,5.273,6.091v.455a.911.911,0,0,0,.909.909H8.818a.911.911,0,0,0,.909-.909V6.091a1.726,1.726,0,0,1,1.727-1.727H32.364a1.726,1.726,0,0,1,1.727,1.727V47.273A1.726,1.726,0,0,1,32.364,49H11.455a1.726,1.726,0,0,1-1.727-1.727V35.091L14.545,32a1.567,1.567,0,0,0,.727-1.273v-1A2.14,2.14,0,0,0,15.091,29l-1.727-3.364a2.12,2.12,0,0,0-1.909-1.182H10.273v4.091a1.105,1.105,0,0,1-1.091,1.091H6a1.105,1.105,0,0,1-1.091-1.091V24.455H3.727a2.12,2.12,0,0,0-1.909,1.182L.091,29c0,.182-.091.455-.091.727v1A1.451,1.451,0,0,0,.727,32l4.636,2.909V47.273a6.091,6.091,0,0,0,6.091,6.091H32.364a6.091,6.091,0,0,0,6.091-6.091V6.091A5.978,5.978,0,0,0,32.364,0Z"/>
      <path id="Path_449" data-name="Path 449" class="cls-2" d="M12.127,15.582H9.673V13.127a.717.717,0,0,0-.727-.727H6.309a.717.717,0,0,0-.727.727v2.455H3.127a.717.717,0,0,0-.727.727v2.636a.717.717,0,0,0,.727.727H5.582v2.455a.717.717,0,0,0,.727.727H8.945a.717.717,0,0,0,.727-.727V19.673h2.455a.717.717,0,0,0,.727-.727V16.309C12.945,15.945,12.582,15.582,12.127,15.582Z" transform="translate(-0.218 -1.127)"/>
      <path id="Path_450" data-name="Path 450" class="cls-2" d="M42.273,8.4v4.455a1.689,1.689,0,0,1,1.455,1.727V55.673A1.726,1.726,0,0,1,42,57.4H21.091a1.726,1.726,0,0,1-1.727-1.727v-.091H15v.091a6.091,6.091,0,0,0,6.091,6.091H42a6.091,6.091,0,0,0,6.091-6.091V14.491A6.034,6.034,0,0,0,42.273,8.4Z" transform="translate(-1.364 -0.764)"/>
    </g>
  </g>
</svg>
