<?xml version="1.0" encoding="utf-8"?>
<!-- Generator: Adobe Illustrator 22.0.1, SVG Export Plug-In . SVG Version: 6.00 Build 0)  -->
<svg version="1.2" baseProfile="tiny" id="Слой_1"
	 xmlns="http://www.w3.org/2000/svg" xmlns:xlink="http://www.w3.org/1999/xlink" x="0px" y="0px" viewBox="0 0 330.2 67.1"
	 xml:space="preserve">
<g>
	<g>
		<path fill="#92278F" d="M65.6,46.6v-20H80c1.3,0,2.3,0.3,3,0.9c0.6,0.6,0.9,1.6,0.9,3v4.5c0,1.3-0.3,2.3-0.9,2.9
			c-0.6,0.6-1.6,0.9-3,0.9H69.5v7.8H65.6z M78.3,30.1h-8.9v5.3h8.9c0.7,0,1.2-0.1,1.4-0.4c0.2-0.2,0.4-0.6,0.4-1.2v-2.1
			c0-0.6-0.1-1-0.4-1.2C79.5,30.2,79,30.1,78.3,30.1z"/>
		<path fill="#92278F" d="M87.8,46.6v-20h17.3V30H91.8v4.5h7.8v3.4h-7.8v5h13.5v3.8H87.8z"/>
		<path fill="#92278F" d="M109.5,46.6v-20h3.2l8,12.1l7.8-12.1h3.2v20h-3.6V34.2c0-0.4,0-0.7,0-0.9c0-0.3,0.1-0.7,0.1-1.2
			c-0.1,0.2-0.2,0.5-0.3,0.7c-0.1,0.2-0.2,0.4-0.3,0.6c-0.2,0.4-0.3,0.7-0.4,0.8l-6.4,10h-0.8l-6.4-10c-0.2-0.3-0.4-0.7-0.6-1.1
			c-0.2-0.4-0.3-0.7-0.4-1c0,0.4,0.1,0.8,0.1,1.2v1v12.4H109.5z"/>
		<path fill="#92278F" d="M136.8,31.3c0-1.8,0.3-3.1,0.8-3.7c0.6-0.7,1.7-1,3.3-1h12.5c1.6,0,2.7,0.3,3.3,1c0.6,0.7,0.9,1.9,0.9,3.7
			v10.5c0,1.8-0.3,3.1-0.9,3.7c-0.6,0.7-1.7,1-3.3,1H141c-1.6,0-2.7-0.3-3.3-1c-0.6-0.7-0.8-1.9-0.8-3.7V31.3z M140.8,42.9h13V30.2
			h-13V42.9z"/>
		<path fill="#92278F" d="M173.5,30.2v16.4h-3.9V30.2h-7.8v-3.6h19.5v3.6H173.5z"/>
		<path fill="#92278F" d="M184.3,46.6v-20h14.5c1.3,0,2.3,0.3,3,0.9c0.6,0.6,0.9,1.6,0.9,3v4.5c0,1.3-0.3,2.3-0.9,2.9
			c-0.6,0.6-1.6,0.9-3,0.9h-10.6v7.8H184.3z M197,30.1h-8.9v5.3h8.9c0.7,0,1.2-0.1,1.4-0.4c0.2-0.2,0.4-0.6,0.4-1.2v-2.1
			c0-0.6-0.1-1-0.4-1.2C198.1,30.2,197.7,30.1,197,30.1z"/>
		<path fill="#92278F" d="M206.9,31.3c0-1.8,0.3-3.1,0.8-3.7c0.6-0.7,1.7-1,3.3-1h12.5c1.6,0,2.7,0.3,3.3,1c0.6,0.7,0.9,1.9,0.9,3.7
			v10.5c0,1.8-0.3,3.1-0.9,3.7c-0.6,0.7-1.7,1-3.3,1h-12.5c-1.6,0-2.7-0.3-3.3-1c-0.6-0.7-0.8-1.9-0.8-3.7V31.3z M210.9,42.9h13
			V30.2h-13V42.9z"/>
		<path fill="#92278F" d="M233.2,46.6v-20h3.9v7.8h12.3v-7.8h4v20h-4V38h-12.3v8.6H233.2z"/>
		<path fill="#92278F" d="M275,46.6V35.8c0-0.6,0-1,0-1.4c0-0.2,0-0.5,0.1-0.8c0-0.4,0.1-0.7,0.1-0.9c-0.2,0.3-0.4,0.5-0.6,0.8
			c-0.2,0.2-0.5,0.5-0.8,0.9l-12.4,12.4h-2.7v-20h3.5v10.5c0,0.4,0,0.8,0,1.1c0,0.3,0,0.7-0.1,1.1c0,0.4,0,0.8-0.1,1.3
			c0.4-0.5,0.6-0.8,0.9-1.1c0.2-0.3,0.6-0.6,1.1-1.1l11.9-11.8h2.7v20H275z"/>
		<path fill="#92278F" d="M283.7,46.6v-20h4v8.3l9.4-8.3h5.7L291.5,36l12.6,10.6h-6.3l-10.1-8.8v8.8H283.7z"/>
		<path fill="#92278F" d="M307.1,46.6l9.5-20h3.8l9.7,20h-4.4l-2-4.4H313l-2,4.4H307.1z M314.7,38.6h7.4l-3.7-8.1L314.7,38.6z"/>
	</g>
	<circle fill="#92278F" cx="24.1" cy="45.4" r="3.2"/>
	<path fill="#92278F" d="M35.6,0h-23C8.9,0,5.8,3,5.8,6.7v0.5c0,0.5,0.4,1,1,1h2.9c0.5,0,1-0.4,1-1V6.7c0-1,0.8-1.9,1.9-1.9h23
		c1,0,1.9,0.8,1.9,1.9V52c0,1-0.8,1.9-1.9,1.9h-23c-1,0-1.9-0.8-1.9-1.9V38.6l5.3-3.4c0.5-0.3,0.8-0.9,0.8-1.4v-1.1
		c0-0.3-0.1-0.5-0.2-0.8l-1.9-3.7c-0.4-0.8-1.2-1.3-2.1-1.3h-1.3v4.5c0,0.7-0.6,1.2-1.2,1.2H6.6c-0.7,0-1.2-0.6-1.2-1.2v-4.5H4.1
		c-0.9,0-1.7,0.5-2.1,1.3l-1.9,3.7C0.1,32.1,0,32.4,0,32.7v1.1c0,0.6,0.3,1.1,0.8,1.4l5.1,3.2V52c0,3.7,3,6.7,6.7,6.7h23
		c3.7,0,6.7-3,6.7-6.7V6.7C42.4,3,39.4,0,35.6,0z"/>
	<path fill="#8DC63F" d="M13.1,15.9h-2.7v-2.7c0-0.5-0.4-0.8-0.8-0.8H6.7c-0.5,0-0.8,0.4-0.8,0.8v2.7H3.2c-0.5,0-0.8,0.4-0.8,0.8
		v2.9c0,0.5,0.4,0.8,0.8,0.8h2.7v2.7c0,0.5,0.4,0.8,0.8,0.8h2.9c0.5,0,0.8-0.4,0.8-0.8v-2.7h2.7c0.5,0,0.8-0.4,0.8-0.8v-2.9
		C14,16.3,13.6,15.9,13.1,15.9z"/>
	<path fill="#8DC63F" d="M45,8.4v4.9c0.9,0.1,1.6,0.9,1.6,1.9v45.2c0,1-0.8,1.9-1.9,1.9h-23c-1,0-1.9-0.8-1.9-1.9v-0.1H15v0.1
		c0,3.7,3,6.7,6.7,6.7h23c3.7,0,6.7-3,6.7-6.7V15.1C51.5,11.5,48.6,8.6,45,8.4z"/>
</g>
</svg>
